<svg width="33" height="33" viewBox="0 0 33 33" fill="none" xmlns="http://www.w3.org/2000/svg">
<path d="M16.1764 32.3528C25.1104 32.3528 32.3528 25.1104 32.3528 16.1764C32.3528 7.24242 25.1104 0 16.1764 0C7.24242 0 0 7.24242 0 16.1764C0 25.1104 7.24242 32.3528 16.1764 32.3528Z" fill="#3CCD64"/>
<path d="M31.9111 16.1764C31.9111 24.8664 24.8664 31.9111 16.1764 31.9111C7.48636 31.9111 0.441691 24.8664 0.441691 16.1764C0.441691 7.48636 7.48636 0.441691 16.1764 0.441691C24.8664 0.441691 31.9111 7.48636 31.9111 16.1764Z" stroke="white" stroke-opacity="0.1" stroke-width="0.883382"/>
<path d="M31.1555 16.346C31.1555 23.6059 26.1066 29.6734 19.3664 31.1516L19.2686 30.6967C18.2532 30.9183 17.2173 31.03 16.1784 31.03C8.91351 31.03 2.72555 25.5444 1.78499 18.2699C1.70328 17.6319 1.66241 16.9893 1.66264 16.346H1.19922C1.19922 7.97952 7.90474 1.19531 16.1774 1.19531V1.66042C24.184 1.66042 30.6943 8.24785 30.6943 16.3445L31.1555 16.346Z" fill="#191919"/>
<path d="M19.7036 30.6184L19.7005 30.6039L19.6073 30.1707L19.1745 30.2652C18.1899 30.48 17.1856 30.5884 16.1784 30.5883C9.13895 30.5883 3.13573 25.271 2.22308 18.2136C2.14378 17.5943 2.10411 16.9705 2.10433 16.3461L2.10448 15.9043H1.66264H1.64734C1.87387 8.13011 8.06065 1.87554 15.7357 1.64367V1.66042V2.10211H16.1774C23.9353 2.10211 30.2526 8.48696 30.2526 16.3445V16.7848L30.6929 16.7862L30.7074 16.7862C30.5128 23.4864 25.89 29.059 19.7036 30.6184Z" stroke="white" stroke-opacity="0.1" stroke-width="0.883382"/>
<path d="M24.0641 27.5617L23.5664 26.7979C29.1664 22.9199 30.7409 15.147 27.1135 9.28491L27.8661 8.78906C31.7549 15.073 30.0679 23.4049 24.0641 27.5617Z" fill="#3CCD64"/>
<path d="M27.7093 9.42129L27.7233 9.4121C31.1104 15.3176 29.5679 22.9208 24.1819 26.9333L24.1671 26.9106C29.5654 22.9041 31.0987 15.308 27.7093 9.42129Z" stroke="white" stroke-opacity="0.1" stroke-width="0.883382"/>
<path d="M4.70296 23.963C3.66772 22.37 2.95907 20.5719 2.62121 18.6811C2.28335 16.7903 2.32354 14.8474 2.73927 12.9734C3.155 11.0995 3.93735 9.33489 5.0375 7.78964C6.13765 6.24439 7.53199 4.95168 9.13352 3.99219L9.58404 4.80618C5.70664 7.13362 3.29795 11.4699 3.29795 16.1229C3.29338 18.7307 4.04329 21.2795 5.45005 23.4375L4.70296 23.963Z" fill="#3CCD64"/>
<path d="M2.85625 16.1225C2.85187 18.6711 3.5453 21.1663 4.85274 23.3176L4.82994 23.3337L3.29795 16.1229M2.85625 16.1225C2.85626 16.1224 2.85626 16.1223 2.85626 16.1221L3.29795 16.1229M2.85625 16.1225C2.85625 16.1227 2.85625 16.1228 2.85625 16.1229H3.29795M2.85625 16.1225C2.85638 11.4661 5.19284 7.11054 8.99452 4.65316M3.29795 16.1229C3.29795 11.4699 5.70664 7.13362 9.58404 4.80618M8.99452 4.65316L9.19759 5.02007L9.58404 4.80618M8.99452 4.65316C9.11382 4.57605 9.23456 4.5008 9.35672 4.42748L9.58404 4.80618M8.99452 4.65316L9.58404 4.80618M8.75795 4.22574C8.88182 4.14584 9.00702 4.06797 9.13352 3.99219L9.34754 4.37887C9.22113 4.45481 9.09605 4.5329 8.97234 4.6131L8.75795 4.22574Z" stroke="white" stroke-opacity="0.1" stroke-width="0.883382"/>
<path d="M10.7747 27.1603C4.76483 24.2008 2.28805 16.9181 5.24294 10.8959C5.46462 10.4441 5.71408 10.0067 5.98988 9.58594L6.76751 10.0983C5.5652 11.9269 4.92615 14.0695 4.92992 16.2593C4.92992 20.5657 7.32707 24.4211 11.1856 26.3243L10.7747 27.1603Z" fill="#3CCD64"/>
<path d="M4.48823 16.2596C4.48837 20.5863 6.81908 24.4777 10.5982 26.5181L10.5769 26.5614C5.07238 23.5913 2.85695 16.7613 5.63946 11.0905C5.78803 10.7877 5.94954 10.4916 6.12354 10.203L6.16303 10.229C5.06542 12.0451 4.48464 14.1309 4.48823 16.2596ZM4.48823 16.2596C4.48823 16.2595 4.48823 16.2594 4.48823 16.2593H4.92992L4.48823 16.26C4.48823 16.2599 4.48823 16.2598 4.48823 16.2596Z" stroke="white" stroke-opacity="0.1" stroke-width="0.883382"/>
<path d="M27.9661 19.17L27.0755 18.9341C27.3156 18.0064 27.437 17.0514 27.4366 16.0925C27.4366 9.93292 22.4744 4.92177 16.375 4.92177V3.99219C22.9923 3.99255 28.3575 9.40996 28.3575 16.0925C28.3578 17.131 28.2262 18.1653 27.9661 19.17Z" fill="#3CCD64"/>
<path d="M16.8167 4.48852V4.44229C22.9817 4.67711 27.9158 9.79945 27.9158 16.0925V16.0926C27.916 16.9455 27.824 17.7954 27.6417 18.6272L27.6052 18.6175C27.787 17.7888 27.8786 16.9421 27.8783 16.0925L16.8167 4.48852ZM16.8167 4.48852C22.9598 4.72365 27.8782 9.84209 27.8783 16.0923L16.8167 4.48852Z" stroke="white" stroke-opacity="0.1" stroke-width="0.883382"/>
<path d="M25.1827 11.7283C22.9873 15.1118 21.0324 14.0865 18.6975 13.6282C16.3625 13.17 15.0726 15.6712 15.0726 15.6712C15.0726 15.6712 15.0752 15.6627 15.0766 15.6587C15.0323 15.7406 14.989 15.8233 14.9476 15.9071C14.8728 16.0541 14.8052 16.2081 14.7405 16.3657C14.7478 16.1943 14.7736 16.0243 14.8175 15.8586C14.86 15.6917 14.9153 15.5284 14.9829 15.3702C15.067 15.1731 15.1689 14.9842 15.2874 14.8061C15.6507 12.4401 13.718 11.5298 11.2773 10.1054C8.55907 8.51925 9.77559 6.78906 9.77559 6.78906C9.77559 6.78906 5.17949 11.618 8.24622 16.1838C11.313 20.7496 15.1922 22.0407 11.1484 28.9136C11.1484 28.9136 13.8957 30.527 18.3159 29.7379C17.1605 24.7466 17.4522 22.8657 19.2821 21.1708L19.0826 21.2443C19.01 21.2689 18.9373 21.2869 18.8646 21.3068L18.7556 21.3358C18.7193 21.3446 18.6829 21.3498 18.6444 21.3567C18.5717 21.37 18.4962 21.3825 18.422 21.3935C18.3479 21.4045 18.2716 21.4045 18.1971 21.4089C18.1608 21.4089 18.1223 21.4126 18.0848 21.4133C18.0474 21.4141 18.0096 21.4104 17.9722 21.4075C17.8974 21.4027 17.8229 21.3972 17.7491 21.388C17.8218 21.3652 17.8944 21.3465 17.9642 21.3281C18.0005 21.3185 18.0351 21.3104 18.0703 21.302L18.1753 21.2693C18.2447 21.2483 18.3141 21.2285 18.3835 21.209C18.4529 21.1895 18.5198 21.1609 18.5877 21.1385C18.6219 21.1271 18.656 21.1171 18.6895 21.1043L18.7901 21.0653C18.8562 21.0381 18.9246 21.0172 18.99 20.9881L19.1876 20.9047C19.2541 20.8783 19.3177 20.8452 19.3831 20.8158C19.6426 20.6952 19.8986 20.5644 20.1513 20.4233L20.3329 20.3211C21.2014 19.8801 21.968 19.3792 22.6733 18.7409C27.0093 14.8237 25.1827 11.7283 25.1827 11.7283Z" fill="white"/>
<path d="M14.39 15.7476C14.438 15.5594 14.5004 15.3753 14.5766 15.1969C14.6578 15.0066 14.7537 14.8231 14.8636 14.6481C14.9255 14.1639 14.8741 13.77 14.7447 13.4314C14.6063 13.0691 14.368 12.7423 14.0306 12.4238C13.4382 11.8644 12.6034 11.3824 11.5949 10.7999C11.42 10.6989 11.2398 10.5949 11.0547 10.4869C9.87049 9.79586 9.32559 9.03834 9.14005 8.33977C8.84636 8.7864 8.53192 9.33277 8.26655 9.94897C7.53378 11.6505 7.19467 13.8261 8.61288 15.9375C9.27518 16.9236 9.97536 17.7527 10.6382 18.5376C10.7263 18.6419 10.8137 18.7454 10.9002 18.8483C11.6297 19.7161 12.3104 20.5589 12.7614 21.4912C13.22 22.4395 13.4394 23.4751 13.2698 24.7265C13.1154 25.8657 12.6413 27.1643 11.7667 28.7242C11.7838 28.7316 11.8014 28.7392 11.8196 28.7469C12.1268 28.8776 12.5858 29.0467 13.18 29.1928C14.2819 29.4637 15.85 29.656 17.7811 29.377C17.2789 27.1143 17.0844 25.4664 17.241 24.1654C17.3519 23.2445 17.6373 22.5068 18.0901 21.855C18.0342 21.8559 17.978 21.8512 17.9485 21.8487L14.39 15.7476ZM14.39 15.7476C14.3382 15.9435 14.3078 16.1445 14.2992 16.347L15.1491 16.5334C15.2114 16.3817 15.2739 16.2397 15.3412 16.1075L15.3412 16.1075L15.3436 16.1028C15.3814 16.0263 15.4213 15.9498 15.463 15.8727C15.4651 15.8738 15.465 15.8739 15.465 15.8739L15.4652 15.8736L15.4663 15.8716L15.4747 15.8561C15.4827 15.8415 15.4955 15.8188 15.513 15.7891C15.5481 15.7296 15.6019 15.6428 15.6738 15.539C15.8183 15.3302 16.032 15.0586 16.3093 14.8022C16.8651 14.2883 17.634 13.8696 18.6124 14.0617C18.8957 14.1173 19.1746 14.1817 19.4566 14.2472L19.4797 14.2526C19.7517 14.3157 20.0278 14.3798 20.3016 14.4338C20.8642 14.5448 21.4461 14.6196 22.0379 14.5583C23.0842 14.4498 24.069 13.9275 25.0468 12.681C25.1043 12.9629 25.1415 13.3187 25.1133 13.7359C25.0368 14.8674 24.4742 16.5186 22.3772 18.4131L22.3769 18.4134C21.706 19.0207 20.9734 19.5005 20.1329 19.9273L20.1246 19.9316L20.1164 19.9361L19.9359 20.0377C19.9357 20.0378 19.9356 20.0378 19.9354 20.0379C19.6932 20.1732 19.4479 20.2986 19.1995 20.4141C19.1563 20.4335 19.1284 20.447 19.1057 20.4579C19.077 20.4717 19.0567 20.4815 19.0243 20.4943L19.0243 20.4942L19.0159 20.4978L18.8182 20.5812L18.8182 20.5811L18.8108 20.5844C18.7928 20.5924 18.7716 20.6005 18.7385 20.6126C18.7348 20.614 18.7309 20.6154 18.7267 20.6169C18.6994 20.6269 18.663 20.6402 18.6268 20.6549L18.5309 20.692C18.5307 20.6921 18.5305 20.6922 18.5304 20.6922C18.5188 20.6967 18.5121 20.6988 18.4995 20.7028C18.4889 20.7061 18.4741 20.7108 18.4487 20.7192M14.39 15.7476L17.9405 21.848C17.8646 21.8432 17.7806 21.837 17.6945 21.8263L17.617 20.9665C17.6936 20.9425 17.7698 20.9225 17.8325 20.906C17.8391 20.9043 17.8455 20.9026 17.8517 20.901L17.8519 20.9009C17.8878 20.8915 17.9227 20.8831 17.9521 20.8761C17.9525 20.876 17.9528 20.8759 17.9531 20.8759L18.044 20.8476L18.0477 20.8464L18.0477 20.8464C18.121 20.8243 18.1935 20.8036 18.2642 20.7838C18.2815 20.7789 18.3022 20.7718 18.3343 20.7601C18.3394 20.7582 18.3449 20.7562 18.351 20.7539C18.3779 20.744 18.4138 20.7307 18.4487 20.7192M18.4487 20.7192C18.4489 20.7191 18.4491 20.7191 18.4493 20.719L18.5191 20.9304M18.4487 20.7192C18.4484 20.7193 18.4482 20.7194 18.448 20.7195L18.5184 20.9306M15.4956 15.7984C15.495 15.8002 15.4938 15.8037 15.4923 15.8081L15.4192 15.7754L15.4956 15.7984ZM15.4956 15.7984C15.4956 15.7983 15.4956 15.7983 15.4956 15.7982M15.4956 15.7984L15.4956 15.7982M15.4956 15.7982C15.496 15.797 15.4961 15.7968 15.4957 15.798L15.4956 15.7982ZM18.5191 20.9304L18.0027 21.0199L17.9981 21.0011L17.9897 20.966C17.9932 20.9662 17.9968 20.9664 18.0003 20.9667L18.0068 20.9671L18.0068 20.9671L18.0225 20.9684C18.059 20.9712 18.0674 20.9719 18.0762 20.9717C18.0782 20.9717 18.0803 20.9716 18.0826 20.9716C18.0835 20.9715 18.0844 20.9715 18.0854 20.9715C18.0922 20.9712 18.1007 20.9707 18.1137 20.97L18.1177 20.9698C18.1334 20.969 18.1567 20.9677 18.1825 20.9674M18.5191 20.9304C18.5189 20.9305 18.5186 20.9305 18.5184 20.9306M18.5191 20.9304L18.5877 21.1385M18.5184 20.9306C18.4651 20.9398 18.4107 20.9486 18.3571 20.9566C18.3416 20.9589 18.3284 20.9602 18.314 20.9612C18.3007 20.9621 18.2864 20.9626 18.2685 20.9633C18.2468 20.9642 18.2196 20.9652 18.1825 20.9674M18.5184 20.9306L18.5877 21.1385M18.1825 20.9674C18.1788 20.9676 18.1749 20.9678 18.171 20.968L18.1886 21.2653L18.1971 21.2627V20.9672C18.1922 20.9672 18.1873 20.9673 18.1825 20.9674ZM18.5877 21.1385C18.5931 21.1367 18.5984 21.1349 18.6037 21.1332C18.6038 21.1332 18.6038 21.1332 18.6039 21.1332C18.6093 21.1314 18.6147 21.1297 18.6201 21.1279C18.6434 21.1205 18.6666 21.1131 18.6895 21.1043L18.5877 21.1385Z" stroke="white" stroke-opacity="0.1" stroke-width="0.883382"/>
</svg>
